<svg width="16" height="16" fill="none" xmlns="http://www.w3.org/2000/svg"><path d="M14.352.5H1.647A1.088 1.088 0 00.545 1.573v12.854A1.087 1.087 0 001.647 15.5h12.705a1.088 1.088 0 001.103-1.072V1.572A1.086 1.086 0 0014.352.5zM5.067 13.055h-2.25v-6.75h2.25v6.75zM3.942 5.36a1.17 1.17 0 110-2.34 1.178 1.178 0 110 2.34zm9.24 7.695h-2.25V9.432c0-.907-.322-1.5-1.14-1.5a1.237 1.237 0 00-1.155.818 1.5 1.5 0 00-.075.547v3.75h-2.25v-6.75h2.25v.953a2.25 2.25 0 012.033-1.125c1.5 0 2.587.968 2.587 3.045v3.885z" fill="#000"/></svg>