<svg width="18" height="16" fill="none" xmlns="http://www.w3.org/2000/svg"><path d="M18 2.42a7.374 7.374 0 01-2.12.58A3.708 3.708 0 0017.503.96a7.444 7.444 0 01-2.347.896 3.693 3.693 0 00-6.292 3.367 10.483 10.483 0 01-7.61-3.859 3.665 3.665 0 00-.5 1.856 3.69 3.69 0 001.643 3.073A3.693 3.693 0 01.724 5.83v.046a3.696 3.696 0 002.962 3.62 3.74 3.74 0 01-.973.13c-.238 0-.47-.024-.695-.069a3.695 3.695 0 003.448 2.565A7.409 7.409 0 01.881 13.7c-.298 0-.592-.018-.881-.05a10.437 10.437 0 005.66 1.66c6.793 0 10.506-5.626 10.506-10.505l-.013-.478A7.373 7.373 0 0018 2.419z" fill="#000"/></svg>