<svg version="1" xmlns="http://www.w3.org/2000/svg" width="426.667" height="426.667" viewBox="0 0 320.000000 320.000000"><path d="M0 41.7c0 23 .4 41.3.8 40.7 1-1.6 7.1-3.4 7.7-2.4.3.5.3 2.7-.1 4.9-.6 3.6-1 4.1-3.3 4.1-2 0-2.2.3-1.1.9.8.6 1.8.7 2.2.5.4-.3.8 3.2.8 7.6 0 7.3-.2 8.2-2 8.7-2.3.6-2.8 4.3-.6 4.3 1.2 0 1.3 1.6.9 9.1-.4 6.5-.3 9 .5 8.5 1.1-.7 1.3-1.9 3.1-19.1.6-5.5 1.4-12.3 1.7-15 .6-4.4 1-9.5 1.3-14.8.1-.9.9-1.7 1.9-1.7 1 0 2.2-.4 2.7-.9 1.7-1.5 7.2-2.9 8.4-2.1.9.5 1 2.6.2 8.6-1 7.8-2.1 19.1-2.6 26.9-.2 2.2-.8 4.1-1.3 4.3-.6.2-.7 1.5-.3 3 .3 1.5.4 4.7 0 7.2-.3 2.5-.7 3.7-.7 2.7-.2-1.5-.4-1.6-1.6-.5-.8.7-1.2 1.7-.9 2.1.3.5-3.2.7-7.8.5l-8.4-.3-.6 3c-1.1 5.2-.9 11.9.4 14.5.9 1.7 1.2 4.8.9 8.8-.4 6-.4 6.2 2.4 7.3 1.6.6 4.1.8 5.7.5 1.5-.3 3.7-.2 5 .3 1.2.5 8.1 1.2 15.2 1.6 7.2.4 13.3.9 13.7 1.1.8.5.8-6.5-.1-7-.4-.3-1.3-.1-2.1.5-1 .6-1.1.9-.2.9.6 0 1.2.4 1.2 1 0 1.2-16.6 1.4-17.3.2-.3-.4-.3-1.9 0-3.5.5-2.6.8-2.7 6.9-2.7 6 0 6.4-.1 7-2.6.6-2.4-.3-19.4-1.1-20.2-.2-.2-2.5-.6-5.1-1-4.4-.7-4.9-1-5.5-3.7l-.7-3-.1 3.2c0 1.8-.5 3.3-1 3.3-2.7 0-3.7-1.3-3.4-4.3C27.2 70.2 28 65.6 33 63.8c1.6-.5 3.2-1.8 3.5-2.9.4-1 1.3-1.9 2-1.9.8 0 1.7-1.1 2.1-2.5.3-1.4 1.2-2.5 2-2.5 1 0 1.2-.8.8-3-.4-2-.2-3 .5-3s.9.5.6 1c-.6 1 4-.6 6.1-2.2.6-.4 1.6-.2 2.3.5 1.1.9 1.4.9 1.8-.1.3-.6 1.1-1.2 1.9-1.2.8 0 1.4-.5 1.4-1.2 0-.9.3-.9 1.2 0 1.5 1.5 5.8 1.6 5.8.2 0-.9.9-1.4 5.5-3.1.6-.2 1.2 2.7 1.5 7.1l.5 7.5 3.1.3c4.7.5 6.4-2.3 7.1-11.1.5-6.9.4-7.6-1.5-8.6-1.4-.8-2.9-.8-4.7-.1-1.5.6-3.2.7-3.8.3-.7-.4-.8 0-.3 1.3.5 1.4.4 1.6-.5.7-1.4-1.4-.3-3.4 1.5-2.7.9.4 1.3-.2 1.1-2-.3-2.5-.1-2.6 4.8-2.6 2.9 0 6.6.4 8.2.8 1.7.5 4.3.6 6 .3 2.8-.6 4.2-3.2 4.7-9 .1-1 .6-.8 1.6.5 1.4 1.8 1.4 1.8.8-.1-.4-1.1-1-3.3-1.3-5-.6-2.8-.6-2.9 1.1-1.2 1 .9 2.1 1.7 2.6 1.7s.7.7.4 1.5c-.3.8.2 2.2 1.2 3.2 1.2 1.3 1.9 1.4 2.2.5.2-.6.8-1.2 1.3-1.2 1.6 0 4.5-3.6 4.1-4.9-.2-.7.1-1.7.8-2.1.7-.4.9-1.3.6-1.9-.4-.6-1.2-.9-1.7-.6-.5.4-.9-.1-.9-.9 0-.9-.4-1.6-1-1.6-.5 0-1-.5-1-1 0-1.4 2.8-1.2 3.3.2.2.7.8 1 1.2.6 1.1-1-1.8-3.5-3.5-3.1-1 .3-.9 0 .3-.7 1.9-1.3 2.3-5.1.5-4.7-.7.1-1.2-.6-1.1-1.6.1-1.6-.5-1.8-3.9-1.3-2.1.3-4.3.8-4.9 1.1-.5.4-.9.1-.9-.4 0-.6-.6-1.1-1.4-1.1-1 0-1.6 2.2-2.1 7.7-.8 7.5-.9 9-1.3 16.1-.2 2.6-.8 3.5-3.6 4.8-3.1 1.5-4.1 1.5-13.1 0-14.1-2.4-21.9-6.8-27.4-15.5-1.7-2.6-3.1-6-3.1-7.5 0-1.6-.4-2.5-1-2.1-2.8 1.7 1.1 17.6 4.9 19.9 2.3 1.5.9 2.6-2.6 2.1-2.1-.3-13.2-1.6-24.7-3C13 21.1 3 19.4 2.2 18.7c-1.1-.9-1.3-3.1-1-9.9.3-4.9.2-8.8-.3-8.8S0 18.6 0 41.7zM103.4 7.6c.3.8.2 1.2-.4.9-.6-.3-1-1-1-1.6 0-1.4.7-1.1 1.4.7zm-93.7 62c-.3.3-1.2.4-1.9.1-.8-.3-.5-.6.6-.6 1.1-.1 1.7.2 1.3.5zM12 158c0 2.8-.3 3-3 2.8-2.3-.2-3-.7-3-2.3 0-2.8.8-3.5 3.7-3.5 1.9 0 2.3.5 2.3 3z"/><path d="M108.6 25.7c-.9.9-.7 3.3.3 3.3 1.2 0 2.2-2.8 1.2-3.4-.5-.3-1.1-.3-1.5.1zM176.5 44.9c-11.6 4-16.6 7-27.5 16.1-2.7 2.3-5 4.7-5 5.4 0 .7-.9 2.1-2.1 3.2-2.5 2.3-4.9 6.6-4.9 8.9 0 1-.6 3.1-1.4 4.8-.8 1.8-1.7 4.5-2.1 6.2-.3 1.6-1.1 4.8-1.7 7-.6 2.2-1.2 11.2-1.4 20-.2 19.6-.6 21-7 22-7.9 1.1-9.4 2-9.4 5.6 0 2.5.9 4 4 6.6 2.9 2.5 4 4.2 4 6.2 0 3.3 3.4 14 6.2 19.4 1.4 2.8 1.9 5.7 1.8 10.5-.1 6.5 1.7 16.3 3.6 19.3.5.8.9 1.6 1 1.9 0 .3.6 1.8 1.3 3.5.7 1.6 1.3 3.8 1.4 4.7.1 1 .7 2 1.5 2.3.7.3 1 .9.7 1.5-.8 1.3 2.7 9 6 13.4 3.4 4.5 9.7 23.2 8.1 24.5-.6.5-4.5 2.3-8.6 4-4.1 1.7-9.3 4-11.5 5.1-8.3 4-28 11.1-34.5 12.5-20.8 4.4-33 10.2-38.1 18.3-1.6 2.6-3.4 6.5-3.9 8.7-.9 3.6-2.6 9-3.7 12.2-.4 1 26.6 1.3 133.1 1.3H320v-32.8l-3.7-.7c-4.2-.7-9.7-3.4-7.3-3.5.8 0 .2-.8-1.5-1.8-1.8-1-6.2-1.9-10.9-2.2-5.1-.3-8.1-1-8.4-1.8-.2-.8.3-1 1.5-.6 1.3.4 1.1 0-.7-1.4-1.3-1.1-3.6-2.3-5-2.5-1.4-.3-6-1.8-10.3-3.4-7.3-2.6-7.9-3.1-9.7-7.1-2.3-5-3.6-5.4-3.6-.9s-4.2 9.7-10.5 13.1c-2.8 1.6-5.1 2.6-5.3 2.4-3-4.6-3.3-12.3-.7-22.6 1.5-6 1.6-7.6.5-9-1.1-1.5-1.6-1.5-3.4-.4-1.2.7-2.5 1.1-2.8.7-.4-.3-.1-.9.5-1.3.8-.5 1-2.1.6-4.6-.4-2.7-1.2-4-3-4.7-3.2-1.2-3-1.3-3.6 2-.4 1.8-1.4 3.2-2.7 3.6-1.1.3-2.7 2-3.6 3.7-1.9 3.7-2.1 4-7.5 10.1-4.3 4.9-11.2 9.3-12.9 8.2-1.1-.7.9-6.7 2.6-7.7 2.5-1.6 5.5-9.4 4.6-11.9-.5-1.3-.6-3.5-.1-4.9.4-1.4 1-4.2 1.3-6.4.5-3.6.2-4.2-4.4-8.8-2.7-2.7-5.3-4.7-5.9-4.4-.5.3-2.4-.5-4.2-1.7-1.9-1.3-4.2-2.6-5.1-3-1-.3-1.8-1.3-1.8-2.1s-1.3-2.7-3-4.3c-3.5-3.3-4-6.3-1-6.3 1.1 0 2 .5 2 1 0 .6 1.1 1.6 2.5 2.2 1.4.6 2.5 1.7 2.5 2.4 0 1.4 4 .7 5.5-1 .6-.6 2.7-2 4.7-3 3.1-1.5 4-1.7 5.3-.6 2.5 2.1 4.4-.4 4-5.5-.3-5.2 2-8 7.6-9 9.1-1.7 14.2-8 16.1-19.8.7-4.7 1.6-7.7 2.4-7.7.6 0 1.5-.7 1.8-1.5.3-.9 1.9-2.1 3.6-2.6 1.6-.6 3-1.8 3-2.6s-.4-1.2-.8-.9c-.8.5-1.2-.7-1.3-4.5 0-1-1.2-1.9-3-2.3-7.1-1.4-17.3-5-19-6.7-1.2-1.2-1.9-1.4-1.9-.7s-.9.2-1.9-1.1c-2.1-2.8-8.6-5.3-11.7-4.5-1.5.4-2.7-.1-3.8-1.7-.9-1.3-1.2-2.5-.6-2.9.5-.3.3-1.8-.6-3.5-.8-1.6-1.3-3.9-1-5 .4-1.4-.1-2.5-1.4-3.3-2.4-1.4-2.6-5-.5-5.8 1.1-.5 1.3-1.3.9-2.8-.4-1.1-.7-3.2-.6-4.5.1-1.4-.7-3.3-1.9-4.4-1.7-1.6-1.8-2.1-.7-2.8 1-.7 1-.9-.3-.9-2.1 0-5.2-3.5-4.7-5.2.3-.8 2.8-1.3 6.9-1.5 3.5-.2 8.3-.4 10.6-.5 2.4-.1 4.6.2 5 .5 1 1.1 1.8.8 4.8-1.7 2.7-2.3 2.7-4.6 0-4.6-.7 0-1.5-.7-1.9-1.5-.3-.8-.2-1.5.3-1.5 1.1 0 2.1-3.8 1.4-5.6-.3-.8-1.1-1.4-1.9-1.4-.8 0-1.4-.6-1.4-1.4 0-.8-.9-1.8-2-2.1-1.1-.3-2-1.2-2-2 0-1.3-1.8-2.9-6.7-6.4-1.3-.9-1.8-2.1-1.5-3.7.3-1.6-.1-2.6-1.2-3-.9-.3-1.6-1.7-1.6-3s-.4-2.4-1-2.4c-.5 0-1-.5-1-1.1 0-.6-1-1.9-2.2-3-3.5-2.8-13.4-2.4-23.3 1zM136 144.6c1.2 3.1 0 5.1-3.3 5.6-1.2.2-2.1.7-1.9 1.1.2.4-.4 1.9-1.2 3.2-2.5 3.9-3.1 10.5-1.2 15 1.6 4 1.6 4-.3 1.7-2.8-3.2-4.2-11.5-3.2-18.5.6-4.7 1.4-6.3 3.7-8.3 3.8-3.1 6.2-3 7.4.2zm69.1 2c.8.9 2.1 1.3 3.5 1 2.1-.6 2.3-.3 2.2 2.7-.1 4.3.7 5.6 3.2 5 1.6-.4 2 0 2 2.1 0 3.2-.5 3.2-4.7 0-3.5-2.6-7-2.6-5.9.1.6 1.7-1 3-1.9 1.5-.9-1.5-4.8-1.2-7.3.6-2.9 2-3 6.4-.2 6.4 1.2 0 2.6.5 3.3 1 .7.6 2.9 2.4 5.1 4 2.1 1.6 4.7 4.6 5.7 6.5l1.9 3.5h-2.6c-1.4 0-2.3-.4-1.9-1 .7-1.1-.6-1.3-2.9-.4-.9.3-1.3 1-1 1.5 1.1 1.8-1.4.8-5.5-2.2-5.1-3.6-9.1-11.5-9-17.4.1-3.8.1-3.7 1.3 1.8 1.8 8.1 3.4 9.3 2.8 2-.3-3.4-1.2-6.9-2.3-8.5-2.3-3.2-2.4-5.1-.4-6.8 1.2-1 1.8-1 2.9-.1 1.2 1 2 .6 4.2-1.8 3-3.4 5.5-3.9 7.5-1.5zm30 2.1c.9 1 1.9 3.3 2.3 5.1.5 2.7.3 3.2-1.1 3-1-.2-1.7.5-1.8 1.9-.1 1.7.4 2.3 1.8 2.3 1.7 0 1.9.5 1.3 3.8-.7 5-4 12.4-6.3 14.4-2.4 2.2-7.3 4-7.3 2.8 0-.6.5-1 1.1-1 .6 0 .9-.7.6-1.5-.4-.8-.2-1.7.3-2 .5-.3.7-3.2.5-6.5-.4-4.9-.2-6.1 1.3-6.9 1-.6 1.2-1.1.4-1.1-.8 0-1.1-1.1-1-3 .2-2.8 1-3.4 4.6-3.3 1.8.1 1.5-.7-1.3-2.9-1.4-1.1-2.2-2.4-1.9-3 .4-.6-.1-1.7-1-2.4-1-.7-1.5-1.7-1.2-2.3.9-1.3 6.6.4 8.7 2.6zm-44.4 29.1c.8 1.8 2.1 3.2 2.7 3.1 2.8-.3 3.7.4 5.9 4.8 2 3.9 2.2 5.4 1.5 8.2-1.3 4.6-2.9 6.2-4.6 4.5-.7-.8-3.1-1.8-5.3-2.4-3.2-.9-4.6-.8-7.1.4-4.6 2.3-7.1 2-8.5-1.1-1.6-3.5-1.6-5 .1-10.9.8-2.7 1.7-6.1 2-7.5.3-1.4 1.8-3.9 3.3-5.6l2.8-3.1 2.8 3.2c1.5 1.7 3.5 4.6 4.4 6.4zM215 184c-2 1.3-3.3 1.3-2.5 0 .3-.6 1.4-1 2.3-1 1.5 0 1.5.2.2 1zm-72 31c0 1.6-.4 3-1 3-.5 0-1-1.4-1-3 0-1.7.5-3 1-3 .6 0 1 1.3 1 3zm57.4 6.3c3 2 3.3 3.5 1 4.4-1.9.7-13.4-4.6-13.4-6.2 0-1.7 9.1-.3 12.4 1.8zm2.2 9.8l2.9 3.1-2.4 1.9c-1.4 1.1-3.9 1.9-6.2 1.9-3.4 0-4.1-.4-5-2.7-1.4-3.7-.8-5.6 2.1-6.4 4.4-1.2 5.6-1 8.6 2.2zM32 72c0 3.5.2 6.1.4 5.9.8-.7 1-10.8.3-11.5-.4-.4-.7 2.1-.7 5.6zM31.2 86c0 1.9.2 2.7.5 1.7.2-.9.2-2.5 0-3.5-.3-.9-.5-.1-.5 1.8zM82.1 87.3c-.5 1.2-1.4 8.3-2 15.7-.6 7.4-1.8 20.8-2.6 29.8-.8 8.9-1.5 18.2-1.5 20.7 0 4.5 0 4.5 3.5 4.5 2.1 0 3.5-.5 3.5-1.3.2-6.5 1.2-19.5 1.6-20.7 1-2.8 2.6-24.4 2.7-36.9.2-12 .1-12.4-2.1-13.2-1.8-.7-2.4-.4-3.1 1.4zM30.1 98.7c0 1.2-.4 3-.7 4-.5 1.7-.5 1.7.6 0 .6-1 .9-2.8.7-4-.4-2.2-.4-2.2-.6 0zM29.2 108.5c0 1.6.2 2.2.5 1.2.2-.9.2-2.3 0-3-.3-.6-.5.1-.5 1.8zM28.2 120.5c0 1.6.2 2.2.5 1.2.2-.9.2-2.3 0-3-.3-.6-.5.1-.5 1.8z"/><path d="M248.5 149c.3.5.8 1 1.1 1 .2 0 .4-.5.4-1 0-.6-.5-1-1.1-1-.5 0-.7.4-.4 1zM47.3 164c-.8 3.3-.8 4 .4 4 1.7 0 3.8-4.4 3-6.4-1-2.7-2.2-1.8-3.4 2.4z"/></svg>