<svg width="18" height="18" fill="none" xmlns="http://www.w3.org/2000/svg"><path d="M16.793 4.703a8.96 8.96 0 00-3.276-3.275A8.803 8.803 0 009 .22a8.804 8.804 0 00-4.518 1.207 8.96 8.96 0 00-3.275 3.275A8.803 8.803 0 000 9.22c0 1.961.572 3.725 1.717 5.291 1.144 1.567 2.623 2.65 4.435 3.252.211.039.367.011.469-.082a.458.458 0 00.152-.352l-.006-.632c-.003-.348-.005-.695-.006-1.043l-.27.047a3.442 3.442 0 01-.65.04 4.958 4.958 0 01-.814-.081 1.82 1.82 0 01-.785-.352 1.487 1.487 0 01-.516-.72l-.117-.27a2.927 2.927 0 00-.369-.598c-.168-.218-.338-.367-.51-.445l-.082-.059a.86.86 0 01-.152-.14.644.644 0 01-.105-.164c-.024-.055-.004-.1.058-.135.063-.035.176-.053.34-.053l.234.035c.157.032.35.125.58.282.23.156.42.359.569.609.18.32.396.564.65.732.254.168.51.252.768.252.257 0 .48-.02.667-.058a2.33 2.33 0 00.528-.176c.07-.524.262-.926.574-1.207a8.026 8.026 0 01-1.201-.211 4.783 4.783 0 01-1.102-.457 3.155 3.155 0 01-.943-.786c-.25-.312-.455-.722-.615-1.23-.16-.508-.24-1.094-.24-1.758 0-.945.308-1.75.925-2.414-.289-.71-.261-1.507.082-2.39.227-.07.563-.018 1.008.158.446.176.772.326.979.451.207.125.373.23.498.316A8.321 8.321 0 019 4.568c.773 0 1.523.101 2.25.304l.445-.28c.305-.188.664-.36 1.078-.516.414-.157.73-.2.95-.13.351.884.382 1.68.093 2.391.617.664.926 1.47.926 2.414 0 .664-.08 1.252-.24 1.764-.16.512-.367.922-.62 1.23-.255.31-.571.569-.95.78a4.79 4.79 0 01-1.102.457 8.024 8.024 0 01-1.201.21c.406.352.61.907.61 1.665v2.472c0 .14.048.258.146.352.097.093.252.12.463.081 1.812-.6 3.29-1.685 4.435-3.251C17.427 12.944 18 11.18 18 9.22a8.81 8.81 0 00-1.207-4.517z" fill="#000"/></svg>